<svg width="10" height="13" viewBox="0 0 10 13" fill="none" xmlns="http://www.w3.org/2000/svg">
<path d="M4.7119 9.30802C4.99947 9.30802 5.27526 9.19764 5.4786 9.00117C5.68195 8.80471 5.79618 8.53824 5.79618 8.2604C5.79618 7.98255 5.68195 7.71608 5.4786 7.51962C5.27526 7.32315 4.99947 7.21278 4.7119 7.21278C4.42433 7.21278 4.14854 7.32315 3.94519 7.51962C3.74185 7.71608 3.62761 7.98255 3.62761 8.2604C3.62761 8.53824 3.74185 8.80471 3.94519 9.00117C4.14854 9.19764 4.42433 9.30802 4.7119 9.30802ZM7.96476 4.59373C8.25233 4.59373 8.52812 4.7041 8.73146 4.90057C8.9348 5.09704 9.04904 5.3635 9.04904 5.64135V10.8794C9.04904 11.1573 8.9348 11.4238 8.73146 11.6202C8.52812 11.8167 8.25233 11.9271 7.96476 11.9271H1.45904C1.17147 11.9271 0.895679 11.8167 0.692336 11.6202C0.488993 11.4238 0.374756 11.1573 0.374756 10.8794V5.64135C0.374756 5.3635 0.488993 5.09704 0.692336 4.90057C0.895679 4.7041 1.17147 4.59373 1.45904 4.59373H2.00118V3.54611C2.00118 2.8515 2.28678 2.18533 2.79513 1.69416C3.30349 1.203 3.99297 0.927063 4.7119 0.927063C5.06787 0.927063 5.42037 0.994807 5.74924 1.12643C6.07812 1.25805 6.37695 1.45096 6.62866 1.69416C6.88038 1.93737 7.08005 2.22609 7.21627 2.54384C7.3525 2.8616 7.42261 3.20217 7.42261 3.54611V4.59373H7.96476ZM4.7119 1.97468C4.28054 1.97468 3.86685 2.14024 3.56184 2.43494C3.25683 2.72964 3.08547 3.12934 3.08547 3.54611V4.59373H6.33833V3.54611C6.33833 3.12934 6.16697 2.72964 5.86196 2.43494C5.55694 2.14024 5.14325 1.97468 4.7119 1.97468Z" fill="#828282"/>
</svg>
