<svg width="10" height="12" viewBox="0 0 10 12" fill="none" xmlns="http://www.w3.org/2000/svg">
<g clip-path="url(#clip0_1_206)">
<path d="M9.15242 2.52707C9.11455 2.52239 9.07639 2.52239 9.03853 2.52707H1.26075C1.2109 2.52799 1.16138 2.53696 1.11353 2.55374L5.12741 7.3504L9.15242 2.52707Z" fill="#828282"/>
<path d="M9.56357 2.99042L5.51912 7.82375C5.41503 7.94792 5.27422 8.01761 5.12745 8.01761C4.98068 8.01761 4.83988 7.94792 4.73579 7.82375L0.727452 3.02708C0.71513 3.08143 0.708596 3.13743 0.708008 3.19375V9.86042C0.708008 10.0372 0.766539 10.2068 0.870726 10.3318C0.974913 10.4568 1.11622 10.5271 1.26356 10.5271H9.04134C9.18869 10.5271 9.32999 10.4568 9.43418 10.3318C9.53837 10.2068 9.5969 10.0372 9.5969 9.86042V3.19375C9.59469 3.1243 9.58344 3.0557 9.56357 2.99042ZM1.64412 9.86042H1.25801V9.38375L3.27745 6.98042L3.66912 7.45042L1.64412 9.86042ZM9.03579 9.86042H8.6469L6.6219 7.45042L7.01356 6.98042L9.03301 9.38375L9.03579 9.86042Z" fill="#828282"/>
</g>
<defs>
<clipPath id="clip0_1_206">
<rect width="9.16667" height="11" fill="white" transform="translate(0.171875 0.5271)"/>
</clipPath>
</defs>
</svg>
